<svg width="164" height="32" viewBox="0 0 164 32" fill="none" xmlns="http://www.w3.org/2000/svg">
<path d="M3.92478 16.2735L4.34038 3.35107H0.25L0.662476 16.2735H3.92478Z" fill="#6A1B9A"/>
<path d="M2.29361 18.5024C1.6499 18.5024 1.10618 18.7169 0.662461 19.149C0.221862 19.578 0 20.1065 0 20.7282C0 21.3686 0.221862 21.9095 0.662461 22.3509C1.10618 22.7923 1.64678 23.0099 2.29361 23.0099C2.90295 23.0099 3.42792 22.7861 3.86852 22.3354C4.31225 21.8877 4.53098 21.3499 4.53098 20.7282C4.53098 20.1065 4.30912 19.578 3.86852 19.1459C3.42792 18.7169 2.90295 18.5024 2.29361 18.5024Z" fill="#6A1B9A"/>
<path d="M22.498 8.02454L20.231 10.2798L22.498 12.535L24.765 10.2798L22.498 8.02454Z" fill="#6A1B9A"/>
<path d="M16.9701 8.02454L14.7031 10.2798L16.9701 12.535L19.2371 10.2798L16.9701 8.02454Z" fill="#6A1B9A"/>
<path d="M51.7095 10.6099L48.366 11.5984L49.4722 15.6955C49.7315 16.6312 49.7128 17.2809 49.4159 17.6477C49.1222 18.0146 48.5878 18.198 47.8129 18.198C46.7254 18.198 46.1817 17.7565 46.1817 16.8768V16.768V13.361H42.8913V16.7711V16.8271C42.8913 17.284 42.7725 17.6291 42.5319 17.8591C42.2913 18.0892 41.8132 18.2042 41.0945 18.2042C39.9883 18.2042 39.4352 17.7286 39.4352 16.7742V13.361H36.1729V16.7711V16.8271C36.1729 17.2685 36.0542 17.6073 35.8136 17.8436C35.573 18.083 35.0949 18.2011 34.3762 18.2011H33.3544C32.6919 18.2011 32.2388 18.0954 32.0013 17.884C31.7607 17.6726 31.6138 17.2561 31.5576 16.6343V16.6064L31.2545 13.2242L27.7766 13.5537L28.0797 16.9359V16.9918C28.1172 17.4146 28.0015 17.7192 27.7328 17.912C27.4641 18.1047 26.9829 18.2011 26.2829 18.2011H19.6239C16.8241 18.2011 14.9523 18.1638 14.0149 18.0923C13.0743 18.0177 12.4025 17.8995 11.9962 17.7348C11.5525 17.5327 11.2775 17.2996 11.1682 17.0322C11.0588 16.768 11.0744 16.3577 11.2244 15.8075L12.3025 11.6544L8.9308 10.6378L7.88086 14.6511C7.49339 16.1525 7.54026 17.5016 8.01836 18.6922C8.49645 19.8828 9.36203 20.7532 10.6151 21.3035C11.4057 21.6516 12.3431 21.8723 13.4212 21.9625C14.4992 22.0558 16.5679 22.0993 19.627 22.0993H26.2891C27.7266 22.0993 28.914 21.7325 29.8546 20.9988C30.6983 21.6827 31.7794 22.0433 33.0887 22.0899V22.0993H34.3887C35.7698 22.0993 36.9229 21.6578 37.8447 20.7781C38.729 21.6578 39.8165 22.0993 41.107 22.0993C42.4882 22.0993 43.6225 21.6765 44.5068 20.8341C45.4099 21.6765 46.5161 22.0993 47.8223 22.0993C49.7378 22.0993 51.1971 21.3936 52.2032 19.9823C53.2063 18.571 53.4157 16.8115 52.8251 14.7039L51.7095 10.6099Z" fill="#6A1B9A"/>
<path d="M80.3141 6.56846L77.7455 4.01318L75.2019 6.56846L77.7455 9.09886L80.3141 6.56846Z" fill="#6A1B9A"/>
<path d="M80.7015 10.6099L77.3298 11.5984L78.436 15.6955C78.6953 16.6499 78.6485 17.3027 78.2985 17.6602C77.9485 18.0177 77.2767 18.1949 76.2799 18.1949H74.3737C73.655 18.1949 72.8863 18.0985 72.0645 17.9058C71.2458 17.713 69.4897 17.2498 66.7992 16.5162L65.7492 20.2279L68.5116 21.1076C69.174 21.3656 69.5146 21.6019 69.5334 21.8226C69.6428 22.6464 69.4084 23.2339 68.8272 23.5821C68.246 23.9302 67.0085 24.325 65.1087 24.7634C62.5651 25.3509 60.8527 24.8504 59.9683 23.265C59.084 21.6796 59.1934 19.2922 60.2996 16.1028L56.9841 14.8096C56.3592 16.5877 56.0061 18.2819 55.9342 19.8953C55.8592 21.5086 56.0405 22.9106 56.4717 24.1012C56.9029 25.2918 57.5529 26.3052 58.4216 27.1383C59.2871 27.9714 60.3527 28.4999 61.6151 28.7206C62.8775 28.9413 64.2993 28.8947 65.8867 28.5838C68.4303 27.9963 70.2771 27.2005 71.427 26.1933C72.577 25.1861 73.1176 23.809 73.0426 22.0682C73.2582 22.0837 73.6144 22.0931 74.0925 22.0962H76.2767C78.3766 22.0962 79.9703 21.4092 81.0577 20.0352C82.1451 18.6612 82.392 16.883 81.8045 14.7008L80.7015 10.6099Z" fill="#6A1B9A"/>
<path d="M97.7817 26.1712L100.047 28.4001L102.313 26.1712L100.047 23.9175L97.7817 26.1712Z" fill="#6A1B9A"/>
<path d="M103.31 26.1712L105.547 28.4001L107.841 26.1712L105.547 23.9175L103.31 26.1712Z" fill="#6A1B9A"/>
<path d="M108.393 10.6097L105.05 11.5983L106.128 15.6954C106.387 16.6311 106.334 17.2808 105.975 17.6476C105.615 18.0144 104.956 18.1978 104 18.1978H100.047H99.769H98.6909C98.2472 18.1978 97.9316 18.0362 97.7378 17.716C97.5441 17.3958 97.3285 16.7492 97.0879 15.7762C96.5535 13.6686 95.8629 10.9734 95.0161 7.69385L91.6163 8.62954L93.6599 16.687L93.7443 17.0166C93.8162 17.3834 93.7349 17.6725 93.4943 17.8839C93.2537 18.0952 92.8225 18.2009 92.1944 18.2009H89.3758C88.6759 18.2009 88.3071 18.0082 88.2696 17.6227C88.2321 17.3647 88.2134 16.9917 88.2134 16.4943H85.0073L85.0354 18.2818C85.0729 19.3636 85.5479 20.2713 86.4572 21.0049C87.3697 21.7385 88.5446 22.1054 89.982 22.1054H91.7226C93.3443 22.1054 94.6599 21.6919 95.6754 20.8681C96.466 21.6919 97.4722 22.1054 98.6878 22.1054H99.7658H100.044H103.997C106.059 22.1054 107.647 21.4308 108.75 20.0848C109.856 18.7387 110.121 17.0103 109.55 14.9027L108.393 10.6097Z" fill="#6A1B9A"/>
<path d="M125.086 15.7795C124.827 14.735 124.268 13.4325 123.399 11.8751C122.533 10.3177 121.874 9.21722 121.424 8.57685C120.971 7.93647 120.599 7.42355 120.306 7.03809L117.459 9.34778L118.315 10.557C118.868 11.3808 119.499 12.4035 120.209 13.6221C120.918 14.8407 121.421 15.8634 121.715 16.6872C122.046 17.6944 121.559 18.198 120.249 18.198H117.099C116.399 18.198 116.031 18.0052 115.993 17.6198C115.956 17.3618 115.937 16.9887 115.937 16.4914H112.731L112.759 18.2788C112.797 19.3606 113.272 20.2683 114.181 21.0019C115.093 21.7356 116.268 22.1024 117.706 22.1024H119.777C121.84 22.1024 123.352 21.4931 124.308 20.2745C125.271 19.056 125.53 17.5576 125.086 15.7795Z" fill="#6A1B9A"/>
<path d="M159.159 4.0101C155.944 1.3367 151.163 0 144.823 0H142.776C138.351 0 134.764 3.56868 134.764 7.97047V24.0295C134.764 28.4313 138.351 32 142.776 32H146.726C150.079 32 153.06 31.3379 155.672 30.0167C158.284 28.6955 160.322 26.8148 161.787 24.3839C163.253 21.9499 163.984 19.1273 163.984 15.9099C163.984 10.6501 162.378 6.68661 159.159 4.0101ZM148.807 25.503C143.463 25.503 139.129 21.1914 139.129 15.8757C139.129 10.5599 143.46 6.2483 148.807 6.2483C154.15 6.2483 158.484 10.5599 158.484 15.8757C158.484 21.1914 154.15 25.503 148.807 25.503Z" fill="#6A1B9A"/>
<path d="M148.807 20.0535C151.057 20.0535 152.881 18.2387 152.881 15.9999C152.881 13.7612 151.057 11.9463 148.807 11.9463C146.556 11.9463 144.732 13.7612 144.732 15.9999C144.732 18.2387 146.556 20.0535 148.807 20.0535Z" fill="#6A1B9A"/>
</svg>
